<?xml version="1.0"?><svg width="990" height="990" xmlns="http://www.w3.org/2000/svg">
 <title>Beach Umbrella</title>
 <defs>
  <pattern id="pattern11050" patternTransform="translate(908.49326,821.85024)" height="21.849281" width="27.389408" patternUnits="userSpaceOnUse">
   <path d="m11.0069,11.7667c3.5387,-1.007298 3.3702,-1.511 6.7403,0.1679c3.3701,1.6789 2.0221,2.5184 0.674,4.0294c-1.348,1.511001 -5.897696,4.8688 -7.5828,3.022c-1.685019,-1.8468 -3.7071,-1.511 -2.86457,-3.3578c0.84254,-1.8468 3.03307,-3.8615 3.03307,-3.8615l0,0z" id="path11012" fill="#8b4c33"/>
   <path d="m19.937799,4.88323c-2.6961,1.6789 -4.3812,2.18258 -3.707199,3.69358c0.674099,1.51099 2.190599,3.02199 3.370199,3.02199c1.179501,0 3.7071,2.0147 4.8866,0.5037c1.1796,-1.511 3.2017,-2.18256 2.864599,-4.19725c-0.337,-2.01468 0,-2.51835 -2.695999,-3.3578c-2.6961,-0.83945 -4.718201,0.33578 -4.718201,0.33578l0,0l0,0l0,0l0,0l0,0l0,0l0,0z" id="path11014" fill="#8b4c33"/>
   <path d="m21.117319,14.95664c-1.685059,2.18257 -3.370129,2.18257 -3.201618,3.52569c0.168509,1.34313 1.179539,3.52569 3.370119,3.357809c2.19059,-0.1679 4.71818,-0.50367 4.886681,-2.518349c0.168499,-2.01469 1.853569,-4.197261 0,-4.868819c-1.853571,-0.671561 -5.055182,0.503669 -5.055182,0.503669z" id="path11016" fill="#8b4c33"/>
   <path d="m8.81637,8.40892c3.03313,0.83945 4.04413,0.33578 4.71813,-0.167892c0.6741,-0.50367 1.1796,-1.17522 2.3591,-2.68624c1.1796,-1.51101 0.674,-3.18991 -0.168502,-4.36515c-0.8425,-1.175236 -0.8425,-1.175236 -2.696098,-0.503676c-1.8535,0.671566 -3.2016,1.007346 -3.2016,3.022036c0,2.01468 -1.01103,4.700921 -1.01103,4.700921l0,0l0,0l0,0l0,0l0,0z" id="path11018" fill="#8b4c33"/>
   <path d="m7.80533,3.20433c-0.33701,2.35046 0.842535,3.69358 -1.01104,5.37248c-1.85356,1.6789 -4.38116,5.37248 -5.05518,2.51835c-0.67403,-2.85413 -2.86461,-4.197248 -1.01104,-6.8835c1.85356,-2.68624 2.19058,-4.86881 4.21266,-4.02936c2.02207,0.83945 2.8646,3.02203 2.8646,3.02203z" id="path11020" fill="#8b4c33"/>
   <path d="m7.46832,10.5915c1.85356,-0.5037 2.52759,-1.34313 1.01103,2.1826c-1.51655,3.525701 -3.37012,7.722899 -4.38115,7.219199c-1.01105,-0.503599 -2.5276,-3.861399 -2.19059,-5.204599c0.33701,-1.343101 2.35909,-1.1752 3.20162,-2.3504c0.84253,-1.1753 2.35909,-1.8468 2.35909,-1.8468l0,0l0,0l0,0l0,0l0,0l0,0l0,0z" id="path11022" fill="#8b4c33"/>
  </pattern>
  <filter color-interpolation-filters="sRGB" id="filter11212">
   <feGaussianBlur stdDeviation="0.288665" id="feGaussianBlur11214"/>
  </filter>
 </defs>
 <metadata id="metadata10023">image/svg+xmlBeach Umbrella2012-05-12Jason M. Simanekbeach umbrella summer</metadata>
 <g>
  <title>Layer 1</title>
  <path id="path11133" d="m433.686005,38.877899c0,0 446.985992,51.313499 464.053009,54.523003c17.067993,3.209496 27.722961,4.758499 36.375977,10.933098c8.653992,6.174004 18.585022,20.546997 16.679993,28.828003c-1.904968,8.280991 -5.867981,-14.378006 -17.678955,-19.554001c-11.812012,-5.177002 -35.02301,-12.862 -35.02301,-12.862l-451.780029,-57.747803l-12.626984,-4.1203z" fill="#ff00ff"/>
  <path d="m429.513,40.749802c0,0 -352.287498,220.761185 -367.1422,229.903214c-14.8549,9.142975 -16.976898,13.983978 -16.976898,16.72699c0,2.742981 -3.1833,19.199982 -9.549503,23.770996c-6.366299,4.570984 -1.0611,10.971008 -1.0611,10.971008c0,0 9.058701,12.539978 16.063602,11.451996c10.060299,-1.563019 3.217197,-40.85202 32.556801,-61.446991c31.819298,-22.336014 284.17131,-184.719315 340.890305,-222.931614c6.496979,-4.3773 5.218994,-8.445599 5.218994,-8.445599l0,0l0,0l0,0l0,0l0,0l0,0l0,0z" id="path10965" fill="#ff00ff"/>
  <path d="m423.94101,46.024799c-132.563019,87.4622 -332.9953,211.431194 -365.515625,244.5872c-9.028198,9.204987 -7.1404,21.852997 -6.679901,37.575989c0.124702,4.25 -17.570297,23.880005 -6.6264,26.737c10.944,2.857025 16.416,11.428009 17.510502,16.190002c1.094299,4.761017 12.038399,9.52301 8.755203,0.951996c-3.283302,-8.570984 15.094795,-22.197998 15.094795,-30.768982c0,-8.571014 -8.007996,-29.057007 7.313599,-42.390015c15.3218,-13.332001 337.798828,-251.027889 337.798828,-251.027889l-7.651001,-1.855301z" id="path10963" fill="#ff007f"/>
  <path d="m433.686005,38.877899c0,0 459.436981,57.5989 476.413971,61.256104c16.977051,3.656998 27.587036,5.485001 36.075012,11.884995c8.489014,6.400002 18.038025,21.028 15.916016,29.257004c-2.122009,8.227997 -8.487976,-10.971008 -20.159973,-16.457001c-11.671021,-5.486 -45.625,-11.885002 -45.625,-11.885002l-450.106018,-69.605297l-12.514008,-4.450802l0,0l0,0l0,0l0,0l0,0l0,0l0,0z" id="path10969" fill="#7f00ff"/>
  <path d="m436.001831,38.137581c2.122253,3.65707 492.135864,77.538826 508.051758,79.367371c15.91571,1.828529 15.91571,11.885475 19.098816,20.113899c3.183289,8.228394 5.305359,10.056946 9.549683,17.371078c4.244141,7.314148 4.244141,6.399887 -1.061035,9.142685c-5.305359,2.742798 -4.244324,6.399872 -6.366394,12.799728c-2.122253,6.399887 -13.793823,11.885513 -18.037964,10.056961c-4.244141,-1.828537 1.061035,-17.371094 -3.183105,-27.428055c-4.244324,-10.056915 11.67157,-10.971176 -23.343323,-20.113876c-21.548645,-5.626526 -343.119507,-56.540421 -476.81546,-96.169823c-5.128235,-1.520069 -7.892975,-5.139969 -7.892975,-5.139969z" id="path10967" fill="#0000ff"/>
  <path d="m464.834015,104.585999l194.359955,859.697998c0,0 2.710022,12.76001 -5.781982,14.807007c-12.541016,3.02301 -14.438965,-7.924011 -14.438965,-7.924011l-194.558014,-860.372993c0,0 -1.468994,-9.820999 8.802979,-11.859596c9.075012,-1.801201 11.616028,5.651596 11.616028,5.651596l0,0l0,0l0,0l0,0l0,0l0,0l0,0z" id="path10894" fill="#3f3f3f"/>
  <path d="m434.635986,49.196602c0,5.039898 -244.898987,313.80941 -253.087982,323.889397c-8.188004,10.079987 -9.897003,30.410004 -13.406006,43.513c-3.509995,13.104004 -16.600998,21.678009 -23.619995,18.653992c-7.018997,-3.023987 -52.641602,-29.230988 -65.509605,-39.311005c-12.867996,-10.079987 -19.886898,-19.151978 -23.396297,-27.215973c-3.509399,-8.064026 -2.3395,-12.095001 4.679298,-19.151001c7.018902,-7.056 11.698101,-15.120026 14.0378,-24.192017c2.3395,-9.071991 3.509399,-17.13501 23.396301,-34.270996c19.886497,-17.135986 329.185509,-242.6534 329.185509,-242.6534l7.720978,0.738003l0,0l0,0l0,0l0,0l0,0l0,0l0,0z" id="path10953" fill="#ff0000"/>
  <path id="path10961" d="m441.602997,44.479301c3.125,4.548 441.504974,174.855705 455.277008,180.248695c13.771973,5.393997 20.098022,22.973007 31.445984,33.210999c11.348999,10.238007 13.947998,7.740997 18.52002,1.838013c4.572998,-5.903015 12.044983,-24.932007 17.615967,-39.847015c5.571045,-14.914993 -5.58197,-22.199997 2.150024,-28.241989c9.971985,-7.792999 -4.340027,-8.490997 -8.088013,-23.874008c-2.351013,-9.646988 0.090027,-11.83699 -7.684998,-18.965988c-7.773987,-7.128006 -30.015991,-13.005005 -58.908997,-19.476013c-28.893005,-6.469994 -453.912994,-89.185493 -453.912994,-89.185493l3.585999,4.292801l0,0l0,0l0,0l0,0l0,0l0,0l0,0z" fill="#007fff"/>
  <path d="m442.657013,44.8307c0,0 -52.473999,328.943287 -54.814026,341.039295c-2.338989,12.096008 0,19.152008 5.848999,30.239014c5.848999,11.087982 11.698029,16.127991 9.359009,22.175995c-2.339996,6.048004 -14.037994,13.104004 -26.906006,13.104004c-12.867981,0 -57.320984,3.023987 -94.754974,3.023987c-37.434021,0 -71.359009,-4.031982 -91.24501,-11.087982c-19.887009,-7.056 -19.887009,-5.040009 -23.397003,-17.136017c-11.639008,-38.208008 1.705002,-46.307007 8.106995,-54.806c12.868011,-17.135986 260.637009,-326.336395 260.637009,-326.336395l7.165009,-0.2159l0,0l0,0l0,0l0,0l0,0l0,0l0,0z" id="path10955" fill="#ff7f00"/>
  <path id="path10959" d="m442.940002,44.5186c0,0 250.913025,275.139389 260.503967,285.062393c9.591003,9.923004 13.329041,14.989014 15.014038,27.865021c1.685974,12.876984 10.388,19.619995 15.505981,20.315979c7.665039,1.041992 14.152039,-0.259003 25.592041,-6.345001c6.795959,-3.61499 13.054993,-0.354004 31.572998,-6.348999c7.099976,-2.298981 4.641968,-7.718994 14.849976,-12.760986c7.984009,-3.942993 28.734985,-7.412994 34.663025,-10.567017c33.277954,-17.703003 60.932983,-37.423004 74.22998,-53.261993c13.297974,-15.838989 14.549988,-14 10.15802,-26.690002c-13.379028,-40.345993 -30.271057,-41.419998 -41.240051,-46.141998c-22.079956,-9.539993 -437.791992,-172.969097 -437.791992,-172.969097l-3.057983,1.841702l0,0l0,0l0,0l0,0l0,0l0,0l0,0z" fill="#00ff00"/>
  <path d="m443.565002,42.324001c0,0 254.174011,266.785007 262.903992,277.316013c8.729004,10.529999 17.76001,20.571991 14.689026,37.842987c-1.981995,11.141998 0.872986,13.539001 1.745972,19.557007c0.872986,6.016998 -0.872986,9.777985 -20.950989,15.042999c-20.077026,5.264984 -66.343018,24.070007 -80.309998,30.087006c-13.96698,6.016998 -77.690979,6.769989 -88.166016,7.521973c-10.474976,0.752014 -6.109985,6.769012 -26.187988,8.274017c-20.076996,1.503998 -26.187988,-3.761017 -37.536011,-4.513c-11.347992,-0.752991 -23.569,11.281982 -30.552002,12.033997c-6.983978,0.752014 -17.458984,3.760986 -20.950989,-3.007996c-3.492004,-6.769989 -6.109985,-8.274017 -12.221008,-15.044006c-6.109985,-6.769012 -13.96698,-4.911987 -18.332001,-14.69101c-4.363983,-9.777985 -7.654999,-16.217987 -5.03598,-32.013977c2.618988,-15.795013 53.248993,-347.855209 53.248993,-347.855209l7.654999,9.4492l0,0l0,0l0,0l0,0l0,0l0,0l0,0z" id="path10957" fill="#ffff00"/>
  <path d="m442.405396,37.477383c-2.195129,-0.006927 -4.6586,0.197006 -7.411163,0.540989c-7.34021,0.917522 -10.070251,2.570446 -12.822815,5.139511c-1.578827,1.474262 0,2.245502 -0.903687,3.800789c0.017334,0.185062 0.631927,1.207664 -1.734619,1.942375c0.394714,1.858074 1.379761,1.839199 2.989746,2.326176c5.385651,1.322273 10.972198,1.441555 16.366516,0.424145c4.49585,-0.965305 9.119843,-2.245163 12.821075,-5.085323c1.19104,-0.817986 2.685059,-3.574528 2.721405,-4.825478c-0.176575,-0.870953 -1.926819,1.003044 -2.06012,0.458588c-1.13739,-0.113911 -6.360352,-1.195896 -1.573608,-0.748734c-0.579926,-1.080944 -2.794159,-0.310223 -3.666656,-0.677406c-2.177795,-0.917522 -1.068146,-3.283173 -4.726074,-3.295631l0,0z" id="path11175" filter="url(#filter11212)" fill="#7a7a7a"/>
  <path d="m436.562988,25.739401c4.766998,-0.045401 9.47702,2.2008 12.359009,6.011299c2.346008,3.012499 3.828003,6.656801 4.493011,10.402601c-0.037994,1.250999 -0.856995,2.778999 -2.046997,3.597c-3.701019,2.840199 -8.303009,4.157898 -12.800018,5.123199c-5.393005,1.0173 -11.04599,1.516701 -16.431,0.194401c-1.609985,-0.487103 -3.667999,-1.203102 -4.062988,-3.061302c-0.479004,-4.851898 -0.07901,-10.0168 2.421997,-14.314899c2.397003,-4.2829 7.035004,-6.880899 11.794983,-7.601c1.409027,-0.2449 2.841003,-0.371099 4.272003,-0.351299l0,0z" id="path10947" fill="#7f7f7f"/>
 </g>
</svg>